# xmcd
#
# Track frame offsets: 
#        150
#        13335
#        37566
#        51614
#        69384
#        90645
#        105681
#        124075
#        137270
#        156220
#        174833
#        191058
#        208343
#        221247
#        238597
#        261745
#        281779
#        297703
#        315813
#
# Disc length: 4431 seconds
#
# Revision: 0
# Processed by: cddbd v1.5.2PL0 Copyright (c) Steve Scherf et al.
# Submitted via: ExactAudioCopyFreeDBPlugin 1.0
#
DISCID=25114d13
DTITLE=S.T.S. - Das Beste von S.T.S.
DYEAR=2010
DGENRE=Pop
TTITLE0=Da kummt die Sunn - 1988
TTITLE1=Fuerstenfeld - 1984
TTITLE2=Goe, Du bleibst heut Nacht bei mir - 1985
TTITLE3=Kalt und kaelter - 2002
TTITLE4=Grossvater - 1986
TTITLE5=Irgendwann bleib I dann dort - 1985
TTITLE6=Ueberdosis G'fuehl - 1984
TTITLE7=Wunder meiner Seligkeit - 1985
TTITLE8=I bin aus Oesterreich - 1995
TTITLE9='s ganze Leben fuer'n Rock' n Roll - 1987
TTITLE10=Herzverbunden - 2003
TTITLE11=Zeig mir Dein' Himmel - 1995
TTITLE12=Auf a Wort - 1992
TTITLE13=Sie wissen all's besser - 1984
TTITLE14=Herr Lohengrin - 1985
TTITLE15=Die Kinder san dran - 1987
TTITLE16=Zehn Minuten still - 1988
TTITLE17=I hab Di leben g'sehn - 1984
TTITLE18=Mach die Aug'n zu - 1987
EXTD=
EXTT0=
EXTT1=
EXTT2=
EXTT3=
EXTT4=
EXTT5=
EXTT6=
EXTT7=
EXTT8=
EXTT9=
EXTT10=
EXTT11=
EXTT12=
EXTT13=
EXTT14=
EXTT15=
EXTT16=
EXTT17=
EXTT18=
PLAYORDER=
